<svg xmlns="http://www.w3.org/2000/svg" width="1440" height="900"><path d="M631,501L612,650L731,595Z" fill="#775480" stroke="#775480" stroke-width="1.51"/><path d="M631,501L489,548L612,650Z" fill="#815382" stroke="#815382" stroke-width="1.51"/><path d="M489,548L460,619L612,650Z" fill="#815382" stroke="#815382" stroke-width="1.51"/><path d="M731,595L842,466L631,501Z" fill="#785480" stroke="#785480" stroke-width="1.51"/><path d="M612,650L792,785L731,595Z" fill="#64557b" stroke="#64557b" stroke-width="1.51"/><path d="M731,595L942,611L842,466Z" fill="#68557c" stroke="#68557c" stroke-width="1.51"/><path d="M664,859L792,785L612,650Z" fill="#6f557e" stroke="#6f557e" stroke-width="1.51"/><path d="M631,501L466,363L489,548Z" fill="#935086" stroke="#935086" stroke-width="1.51"/><path d="M789,350L643,321L631,501Z" fill="#8e5185" stroke="#8e5185" stroke-width="1.51"/><path d="M842,466L789,350L631,501Z" fill="#815382" stroke="#815382" stroke-width="1.51"/><path d="M555,865L664,859L612,650Z" fill="#7a5481" stroke="#7a5481" stroke-width="1.51"/><path d="M643,321L466,363L631,501Z" fill="#984f87" stroke="#984f87" stroke-width="1.51"/><path d="M341,588L373,660L460,619Z" fill="#8b5185" stroke="#8b5185" stroke-width="1.51"/><path d="M460,619L555,865L612,650Z" fill="#76547f" stroke="#76547f" stroke-width="1.51"/><path d="M341,588L460,619L489,548Z" fill="#8d5185" stroke="#8d5185" stroke-width="1.51"/><path d="M792,785L942,611L731,595Z" fill="#595679" stroke="#595679" stroke-width="1.51"/><path d="M842,466L908,382L789,350Z" fill="#7d5381" stroke="#7d5381" stroke-width="1.51"/><path d="M373,660L555,865L460,619Z" fill="#7e5382" stroke="#7e5382" stroke-width="1.51"/><path d="M466,363L341,588L489,548Z" fill="#984f88" stroke="#984f88" stroke-width="1.51"/><path d="M989,493L908,382L842,466Z" fill="#70547e" stroke="#70547e" stroke-width="1.51"/><path d="M942,611L989,493L842,466Z" fill="#63567b" stroke="#63567b" stroke-width="1.51"/><path d="M643,321L573,231L466,363Z" fill="#a64c8b" stroke="#a64c8b" stroke-width="1.51"/><path d="M771,206L640,228L643,321Z" fill="#a14d8a" stroke="#a14d8a" stroke-width="1.51"/><path d="M771,206L643,321L789,350Z" fill="#974f87" stroke="#974f87" stroke-width="1.51"/><path d="M640,228L573,231L643,321Z" fill="#a74b8c" stroke="#a74b8c" stroke-width="1.51"/><path d="M466,363L274,538L341,588Z" fill="#9b4e89" stroke="#9b4e89" stroke-width="1.51"/><path d="M341,588L230,629L373,660Z" fill="#855283" stroke="#855283" stroke-width="1.51"/><path d="M320,326L274,538L466,363Z" fill="#a64c8b" stroke="#a64c8b" stroke-width="1.51"/><path d="M901,247L771,206L789,350Z" fill="#925086" stroke="#925086" stroke-width="1.51"/><path d="M640,228L503,135L573,231Z" fill="#b0488e" stroke="#b0488e" stroke-width="1.51"/><path d="M792,785L956,844L942,611Z" fill="#555678" stroke="#555678" stroke-width="1.51"/><path d="M942,611L1122,484L989,493Z" fill="#585679" stroke="#585679" stroke-width="1.51"/><path d="M921,903L956,844L792,785Z" fill="#65567c" stroke="#65567c" stroke-width="1.51"/><path d="M921,903L792,785L807,1001Z" fill="#73557e" stroke="#73557e" stroke-width="1.51"/><path d="M908,382L901,247L789,350Z" fill="#855283" stroke="#855283" stroke-width="1.51"/><path d="M1040,310L901,247L908,382Z" fill="#7f5382" stroke="#7f5382" stroke-width="1.51"/><path d="M383,169L320,326L466,363Z" fill="#b94590" stroke="#b94590" stroke-width="1.51"/><path d="M555,865L607,995L664,859Z" fill="#8b5184" stroke="#8b5184" stroke-width="1.51"/><path d="M476,1015L607,995L555,865Z" fill="#984f88" stroke="#984f88" stroke-width="1.51"/><path d="M310,838L555,865L373,660Z" fill="#8e5185" stroke="#8e5185" stroke-width="1.51"/><path d="M807,1001L792,785L664,859Z" fill="#795480" stroke="#795480" stroke-width="1.51"/><path d="M274,538L230,629L341,588Z" fill="#885284" stroke="#885284" stroke-width="1.51"/><path d="M75,477L230,629L274,538Z" fill="#845283" stroke="#845283" stroke-width="1.51"/><path d="M230,629L310,838L373,660Z" fill="#7e5381" stroke="#7e5381" stroke-width="1.51"/><path d="M607,995L646,1026L664,859Z" fill="#8f5186" stroke="#8f5186" stroke-width="1.51"/><path d="M489,1120L646,1026L607,995Z" fill="#a14d8a" stroke="#a14d8a" stroke-width="1.51"/><path d="M646,1026L807,1001L664,859Z" fill="#895284" stroke="#895284" stroke-width="1.51"/><path d="M1063,814L1084,732L956,844Z" fill="#4d5677" stroke="#4d5677" stroke-width="1.51"/><path d="M956,844L1084,732L942,611Z" fill="#465676" stroke="#465676" stroke-width="1.51"/><path d="M989,493L1040,310L908,382Z" fill="#71547e" stroke="#71547e" stroke-width="1.51"/><path d="M573,231L383,169L466,363Z" fill="#b5478f" stroke="#b5478f" stroke-width="1.51"/><path d="M654,38L503,135L640,228Z" fill="#a54c8b" stroke="#a54c8b" stroke-width="1.51"/><path d="M310,838L476,1015L555,865Z" fill="#9a4e88" stroke="#9a4e88" stroke-width="1.51"/><path d="M1122,484L1040,310L989,493Z" fill="#64557b" stroke="#64557b" stroke-width="1.51"/><path d="M1130,992L1063,814L956,844Z" fill="#5a5679" stroke="#5a5679" stroke-width="1.51"/><path d="M1130,992L956,844L921,903Z" fill="#63557b" stroke="#63557b" stroke-width="1.51"/><path d="M1084,732L1122,484L942,611Z" fill="#475675" stroke="#475675" stroke-width="1.51"/><path d="M1107,1056L1130,992L921,903Z" fill="#69557c" stroke="#69557c" stroke-width="1.51"/><path d="M646,1026L778,1048L807,1001Z" fill="#8e5185" stroke="#8e5185" stroke-width="1.51"/><path d="M489,1120L778,1048L646,1026Z" fill="#9d4e89" stroke="#9d4e89" stroke-width="1.51"/><path d="M503,135L383,169L573,231Z" fill="#b6478f" stroke="#b6478f" stroke-width="1.51"/><path d="M357,1006L422,1032L476,1015Z" fill="#ac4a8d" stroke="#ac4a8d" stroke-width="1.51"/><path d="M476,1015L489,1120L607,995Z" fill="#a64c8b" stroke="#a64c8b" stroke-width="1.51"/><path d="M273,169L209,328L320,326Z" fill="#af498e" stroke="#af498e" stroke-width="1.51"/><path d="M320,326L209,328L274,538Z" fill="#9f4d89" stroke="#9f4d89" stroke-width="1.51"/><path d="M771,206L654,38L640,228Z" fill="#9f4e89" stroke="#9f4e89" stroke-width="1.51"/><path d="M901,247L848,104L771,206Z" fill="#955087" stroke="#955087" stroke-width="1.51"/><path d="M995,124L848,104L901,247Z" fill="#895284" stroke="#895284" stroke-width="1.51"/><path d="M1122,484L1152,320L1040,310Z" fill="#71547e" stroke="#71547e" stroke-width="1.51"/><path d="M1203,616L1160,493L1122,484Z" fill="#5f567a" stroke="#5f567a" stroke-width="1.51"/><path d="M1203,616L1122,484L1084,732Z" fill="#505677" stroke="#505677" stroke-width="1.51"/><path d="M310,838L357,1006L476,1015Z" fill="#a64c8b" stroke="#a64c8b" stroke-width="1.51"/><path d="M180,1018L357,1006L310,838Z" fill="#9d4e89" stroke="#9d4e89" stroke-width="1.51"/><path d="M112,808L196,838L230,629Z" fill="#785480" stroke="#785480" stroke-width="1.51"/><path d="M230,629L196,838L310,838Z" fill="#805382" stroke="#805382" stroke-width="1.51"/><path d="M1040,310L1014,181L901,247Z" fill="#855283" stroke="#855283" stroke-width="1.51"/><path d="M1152,320L1014,181L1040,310Z" fill="#7c5381" stroke="#7c5381" stroke-width="1.51"/><path d="M848,104L654,38L771,206Z" fill="#935087" stroke="#935087" stroke-width="1.51"/><path d="M336,35L273,169L383,169Z" fill="#b3488e" stroke="#b3488e" stroke-width="1.51"/><path d="M1265,749L1203,616L1084,732Z" fill="#495676" stroke="#495676" stroke-width="1.51"/><path d="M209,328L128,390L274,538Z" fill="#974f87" stroke="#974f87" stroke-width="1.51"/><path d="M109,187L128,390L209,328Z" fill="#a14d8a" stroke="#a14d8a" stroke-width="1.51"/><path d="M383,169L273,169L320,326Z" fill="#bc4491" stroke="#bc4491" stroke-width="1.51"/><path d="M336,35L383,169L503,135Z" fill="#b5478f" stroke="#b5478f" stroke-width="1.51"/><path d="M1370,330L1152,320L1160,493Z" fill="#7c5381" stroke="#7c5381" stroke-width="1.51"/><path d="M1160,493L1152,320L1122,484Z" fill="#6c557d" stroke="#6c557d" stroke-width="1.51"/><path d="M188,1099L489,1120L422,1032Z" fill="#b6478f" stroke="#b6478f" stroke-width="1.51"/><path d="M422,1032L489,1120L476,1015Z" fill="#ad4a8d" stroke="#ad4a8d" stroke-width="1.51"/><path d="M1059,135L995,124L1014,181Z" fill="#7d5382" stroke="#7d5382" stroke-width="1.51"/><path d="M1014,181L995,124L901,247Z" fill="#885284" stroke="#885284" stroke-width="1.51"/><path d="M848,104L796,-45L654,38Z" fill="#875284" stroke="#875284" stroke-width="1.51"/><path d="M128,390L75,477L274,538Z" fill="#8c5184" stroke="#8c5184" stroke-width="1.51"/><path d="M71,700L112,808L230,629Z" fill="#6d557d" stroke="#6d557d" stroke-width="1.51"/><path d="M196,838L180,1018L310,838Z" fill="#905186" stroke="#905186" stroke-width="1.51"/><path d="M357,1006L188,1099L422,1032Z" fill="#ad4a8d" stroke="#ad4a8d" stroke-width="1.51"/><path d="M75,477L71,700L230,629Z" fill="#75547f" stroke="#75547f" stroke-width="1.51"/><path d="M1152,320L1059,135L1014,181Z" fill="#845283" stroke="#845283" stroke-width="1.51"/><path d="M931,-104L796,-45L848,104Z" fill="#775480" stroke="#775480" stroke-width="1.51"/><path d="M273,169L109,187L209,328Z" fill="#af498e" stroke="#af498e" stroke-width="1.51"/><path d="M-57,346L-34,520L75,477Z" fill="#7e5381" stroke="#7e5381" stroke-width="1.51"/><path d="M496,-54L336,35L503,135Z" fill="#a74b8b" stroke="#a74b8b" stroke-width="1.51"/><path d="M1063,814L1265,749L1084,732Z" fill="#4f5677" stroke="#4f5677" stroke-width="1.51"/><path d="M1107,1056L921,903L991,1161Z" fill="#76547f" stroke="#76547f" stroke-width="1.51"/><path d="M921,903L807,1001L991,1161Z" fill="#7d5381" stroke="#7d5381" stroke-width="1.51"/><path d="M1203,616L1343,506L1160,493Z" fill="#67557c" stroke="#67557c" stroke-width="1.51"/><path d="M1186,967L1265,749L1063,814Z" fill="#5f567a" stroke="#5f567a" stroke-width="1.51"/><path d="M654,38L496,-54L503,135Z" fill="#9d4e89" stroke="#9d4e89" stroke-width="1.51"/><path d="M1009,-50L848,104L995,124Z" fill="#785480" stroke="#785480" stroke-width="1.51"/><path d="M126,958L196,838L112,808Z" fill="#845283" stroke="#845283" stroke-width="1.51"/><path d="M126,958L180,1018L196,838Z" fill="#905185" stroke="#905185" stroke-width="1.51"/><path d="M-55,881L126,958L112,808Z" fill="#7e5381" stroke="#7e5381" stroke-width="1.51"/><path d="M626,-107L496,-54L654,38Z" fill="#8e5185" stroke="#8e5185" stroke-width="1.51"/><path d="M1130,992L1186,967L1063,814Z" fill="#67557c" stroke="#67557c" stroke-width="1.51"/><path d="M991,1161L807,1001L778,1048Z" fill="#895284" stroke="#895284" stroke-width="1.51"/><path d="M1245,1057L1186,967L1130,992Z" fill="#795480" stroke="#795480" stroke-width="1.51"/><path d="M146,136L109,187L273,169Z" fill="#aa4a8c" stroke="#aa4a8c" stroke-width="1.51"/><path d="M257,0L146,136L273,169Z" fill="#a64c8b" stroke="#a64c8b" stroke-width="1.51"/><path d="M257,0L273,169L336,35Z" fill="#a84b8b" stroke="#a84b8b" stroke-width="1.51"/><path d="M489,1120L991,1161L778,1048Z" fill="#984f88" stroke="#984f88" stroke-width="1.51"/><path d="M796,-45L626,-107L654,38Z" fill="#855383" stroke="#855383" stroke-width="1.51"/><path d="M75,477L-34,520L71,700Z" fill="#72547e" stroke="#72547e" stroke-width="1.51"/><path d="M71,700L-55,881L112,808Z" fill="#70557e" stroke="#70557e" stroke-width="1.51"/><path d="M-57,346L75,477L128,390Z" fill="#895284" stroke="#895284" stroke-width="1.51"/><path d="M1346,640L1343,506L1203,616Z" fill="#66567c" stroke="#66567c" stroke-width="1.51"/><path d="M1152,320L1270,196L1059,135Z" fill="#8c5185" stroke="#8c5185" stroke-width="1.51"/><path d="M107,1138L188,1099L180,1018Z" fill="#a34d8a" stroke="#a34d8a" stroke-width="1.51"/><path d="M180,1018L188,1099L357,1006Z" fill="#a54c8b" stroke="#a54c8b" stroke-width="1.51"/><path d="M489,1120L107,1138L991,1161Z" fill="#b2488e" stroke="#b2488e" stroke-width="1.51"/><path d="M1265,749L1346,640L1203,616Z" fill="#565678" stroke="#565678" stroke-width="1.51"/><path d="M1186,967L1311,804L1265,749Z" fill="#68557c" stroke="#68557c" stroke-width="1.51"/><path d="M1311,804L1346,640L1265,749Z" fill="#5d557a" stroke="#5d557a" stroke-width="1.51"/><path d="M288,-40L336,35L496,-54Z" fill="#a44c8a" stroke="#a44c8a" stroke-width="1.51"/><path d="M288,-40L257,0L336,35Z" fill="#9f4d8a" stroke="#9f4d8a" stroke-width="1.51"/><path d="M28,41L109,187L146,136Z" fill="#9c4e89" stroke="#9c4e89" stroke-width="1.51"/><path d="M334,-176L288,-40L496,-54Z" fill="#9a4e88" stroke="#9a4e88" stroke-width="1.51"/><path d="M1059,135L1009,-50L995,124Z" fill="#73547f" stroke="#73547f" stroke-width="1.51"/><path d="M796,-45L727,-224L626,-107Z" fill="#76547f" stroke="#76547f" stroke-width="1.51"/><path d="M1161,-9L1009,-50L1059,135Z" fill="#6b557d" stroke="#6b557d" stroke-width="1.51"/><path d="M1329,254L1270,196L1152,320Z" fill="#905086" stroke="#905086" stroke-width="1.51"/><path d="M1009,-50L931,-104L848,104Z" fill="#70557e" stroke="#70557e" stroke-width="1.51"/><path d="M28,41L146,136L257,0Z" fill="#994f88" stroke="#994f88" stroke-width="1.51"/><path d="M-118,281L-57,346L109,187Z" fill="#955087" stroke="#955087" stroke-width="1.51"/><path d="M109,187L-57,346L128,390Z" fill="#974f87" stroke="#974f87" stroke-width="1.51"/><path d="M1370,330L1329,254L1152,320Z" fill="#8d5185" stroke="#8d5185" stroke-width="1.51"/><path d="M1343,506L1370,330L1160,493Z" fill="#7a5480" stroke="#7a5480" stroke-width="1.51"/><path d="M1481,392L1370,330L1343,506Z" fill="#895284" stroke="#895284" stroke-width="1.51"/><path d="M1186,967L1415,918L1311,804Z" fill="#76547f" stroke="#76547f" stroke-width="1.51"/><path d="M1107,1056L1245,1057L1130,992Z" fill="#7a5381" stroke="#7a5381" stroke-width="1.51"/><path d="M991,1161L1245,1057L1107,1056Z" fill="#7d5382" stroke="#7d5382" stroke-width="1.51"/><path d="M1370,97L1279,142L1329,254Z" fill="#974f88" stroke="#974f88" stroke-width="1.51"/><path d="M1329,254L1279,142L1270,196Z" fill="#984f88" stroke="#984f88" stroke-width="1.51"/><path d="M1270,196L1279,142L1059,135Z" fill="#8a5284" stroke="#8a5284" stroke-width="1.51"/><path d="M-124,595L71,700L-34,520Z" fill="#64557c" stroke="#64557c" stroke-width="1.51"/><path d="M-124,595L-55,881L71,700Z" fill="#5c557a" stroke="#5c557a" stroke-width="1.51"/><path d="M126,958L107,1138L180,1018Z" fill="#9a4f88" stroke="#9a4f88" stroke-width="1.51"/><path d="M-238,579L-124,595L-254,360Z" fill="#60557b" stroke="#60557b" stroke-width="1.51"/><path d="M931,-104L727,-224L796,-45Z" fill="#6c557d" stroke="#6c557d" stroke-width="1.51"/><path d="M1009,-50L966,-131L931,-104Z" fill="#60567a" stroke="#60567a" stroke-width="1.51"/><path d="M1152,-221L966,-131L1009,-50Z" fill="#515678" stroke="#515678" stroke-width="1.51"/><path d="M1279,142L1161,-9L1059,135Z" fill="#7d5381" stroke="#7d5381" stroke-width="1.51"/><path d="M-28,1006L107,1138L126,958Z" fill="#935087" stroke="#935087" stroke-width="1.51"/><path d="M188,1099L107,1138L489,1120Z" fill="#b1498e" stroke="#b1498e" stroke-width="1.51"/><path d="M-14,1133L-28,1006L-157,1057Z" fill="#8a5184" stroke="#8a5184" stroke-width="1.51"/><path d="M-55,881L-28,1006L126,958Z" fill="#825382" stroke="#825382" stroke-width="1.51"/><path d="M966,-131L727,-224L931,-104Z" fill="#61567b" stroke="#61567b" stroke-width="1.51"/><path d="M626,-107L522,-222L496,-54Z" fill="#865283" stroke="#865283" stroke-width="1.51"/><path d="M610,-265L522,-222L626,-107Z" fill="#795480" stroke="#795480" stroke-width="1.51"/><path d="M522,-222L334,-176L496,-54Z" fill="#8d5185" stroke="#8d5185" stroke-width="1.51"/><path d="M4,-64L28,41L257,0Z" fill="#8b5284" stroke="#8b5284" stroke-width="1.51"/><path d="M4,-64L257,0L57,-151Z" fill="#835382" stroke="#835382" stroke-width="1.51"/><path d="M-254,360L-124,595L-34,520Z" fill="#6a557d" stroke="#6a557d" stroke-width="1.51"/><path d="M-71,66L-118,281L109,187Z" fill="#984f88" stroke="#984f88" stroke-width="1.51"/><path d="M1562,460L1481,392L1343,506Z" fill="#8a5284" stroke="#8a5284" stroke-width="1.51"/><path d="M1311,804L1498,853L1346,640Z" fill="#6b557d" stroke="#6b557d" stroke-width="1.51"/><path d="M1245,1057L1415,918L1186,967Z" fill="#7f5382" stroke="#7f5382" stroke-width="1.51"/><path d="M727,-224L610,-265L626,-107Z" fill="#72557f" stroke="#72557f" stroke-width="1.51"/><path d="M522,-222L219,-253L334,-176Z" fill="#875284" stroke="#875284" stroke-width="1.51"/><path d="M1540,240L1370,97L1329,254Z" fill="#a44c8b" stroke="#a44c8b" stroke-width="1.51"/><path d="M1279,142L1322,-36L1161,-9Z" fill="#7e5381" stroke="#7e5381" stroke-width="1.51"/><path d="M1551,611L1343,506L1346,640Z" fill="#72557f" stroke="#72557f" stroke-width="1.51"/><path d="M1540,240L1329,254L1370,330Z" fill="#9d4e89" stroke="#9d4e89" stroke-width="1.51"/><path d="M1161,-9L1152,-221L1009,-50Z" fill="#5c557a" stroke="#5c557a" stroke-width="1.51"/><path d="M-28,1006L-14,1133L107,1138Z" fill="#974f87" stroke="#974f87" stroke-width="1.51"/><path d="M-157,1057L-28,1006L-55,881Z" fill="#7d5381" stroke="#7d5381" stroke-width="1.51"/><path d="M-124,595L-171,852L-55,881Z" fill="#5c567a" stroke="#5c567a" stroke-width="1.51"/><path d="M-233,709L-171,852L-124,595Z" fill="#4b5676" stroke="#4b5676" stroke-width="1.51"/><path d="M28,41L-71,66L109,187Z" fill="#925086" stroke="#925086" stroke-width="1.51"/><path d="M-14,-68L-71,66L28,41Z" fill="#835383" stroke="#835383" stroke-width="1.51"/><path d="M-254,360L-34,520L-57,346Z" fill="#785480" stroke="#785480" stroke-width="1.51"/><path d="M-254,360L-57,346L-118,281Z" fill="#815382" stroke="#815382" stroke-width="1.51"/><path d="M1415,918L1498,853L1311,804Z" fill="#7b5480" stroke="#7b5480" stroke-width="1.51"/><path d="M1494,896L1498,853L1415,918Z" fill="#855283" stroke="#855283" stroke-width="1.51"/><path d="M-238,579L-233,709L-124,595Z" fill="#4e5677" stroke="#4e5677" stroke-width="1.51"/><path d="M1559,1043L1494,896L1415,918Z" fill="#905185" stroke="#905185" stroke-width="1.51"/><path d="M1601,632L1551,611L1498,853Z" fill="#73547f" stroke="#73547f" stroke-width="1.51"/><path d="M1498,853L1551,611L1346,640Z" fill="#6a557d" stroke="#6a557d" stroke-width="1.51"/><path d="M-233,116L-205,276L-118,281Z" fill="#8b5185" stroke="#8b5185" stroke-width="1.51"/><path d="M1370,97L1322,-36L1279,142Z" fill="#895284" stroke="#895284" stroke-width="1.51"/><path d="M966,-131L1137,-264L727,-224Z" fill="#515677" stroke="#515677" stroke-width="1.51"/><path d="M727,-224L1137,-264L610,-265Z" fill="#585679" stroke="#585679" stroke-width="1.51"/><path d="M1330,-154L1322,-36L1520,-5Z" fill="#7e5481" stroke="#7e5481" stroke-width="1.51"/><path d="M-71,66L-233,116L-118,281Z" fill="#8a5284" stroke="#8a5284" stroke-width="1.51"/><path d="M57,-151L257,0L288,-40Z" fill="#8d5185" stroke="#8d5185" stroke-width="1.51"/><path d="M1245,1057L1389,1119L1415,918Z" fill="#8d5285" stroke="#8d5285" stroke-width="1.51"/><path d="M991,1161L1389,1119L1245,1057Z" fill="#8a5284" stroke="#8a5284" stroke-width="1.51"/><path d="M1481,392L1540,240L1370,330Z" fill="#9c4e88" stroke="#9c4e88" stroke-width="1.51"/><path d="M1551,611L1562,460L1343,506Z" fill="#825382" stroke="#825382" stroke-width="1.51"/><path d="M4,-64L-14,-68L28,41Z" fill="#7f5482" stroke="#7f5482" stroke-width="1.51"/><path d="M57,-151L-14,-68L4,-64Z" fill="#77547f" stroke="#77547f" stroke-width="1.51"/><path d="M219,-253L288,-40L334,-176Z" fill="#895284" stroke="#895284" stroke-width="1.51"/><path d="M-205,276L-254,360L-118,281Z" fill="#7f5381" stroke="#7f5381" stroke-width="1.51"/><path d="M-238,579L-248,927L-233,709Z" fill="#475675" stroke="#475675" stroke-width="1.51"/><path d="M-233,116L-254,360L-205,276Z" fill="#835383" stroke="#835383" stroke-width="1.51"/><path d="M610,-265L219,-253L522,-222Z" fill="#805382" stroke="#805382" stroke-width="1.51"/><path d="M-248,927L-157,1057L-171,852Z" fill="#6d557d" stroke="#6d557d" stroke-width="1.51"/><path d="M-171,852L-157,1057L-55,881Z" fill="#71557e" stroke="#71557e" stroke-width="1.51"/><path d="M219,-253L57,-151L288,-40Z" fill="#815382" stroke="#815382" stroke-width="1.51"/><path d="M1330,-154L1152,-221L1161,-9Z" fill="#63567b" stroke="#63567b" stroke-width="1.51"/><path d="M1551,611L1670,565L1562,460Z" fill="#8a5184" stroke="#8a5184" stroke-width="1.51"/><path d="M1697,764L1601,632L1498,853Z" fill="#7f5382" stroke="#7f5382" stroke-width="1.51"/><path d="M1622,366L1540,240L1481,392Z" fill="#a24d8a" stroke="#a24d8a" stroke-width="1.51"/><path d="M1622,366L1481,392L1562,460Z" fill="#994f88" stroke="#994f88" stroke-width="1.51"/><path d="M-233,709L-248,927L-171,852Z" fill="#595679" stroke="#595679" stroke-width="1.51"/><path d="M-254,360L-248,927L-238,579Z" fill="#495676" stroke="#495676" stroke-width="1.51"/><path d="M1330,-154L1137,-264L1152,-221Z" fill="#545678" stroke="#545678" stroke-width="1.51"/><path d="M1152,-221L1137,-264L966,-131Z" fill="#475675" stroke="#475675" stroke-width="1.51"/><path d="M1670,565L1622,366L1562,460Z" fill="#974f88" stroke="#974f88" stroke-width="1.51"/><path d="M-180,12L-71,66L-14,-68Z" fill="#7a5380" stroke="#7a5380" stroke-width="1.51"/><path d="M-180,12L-233,116L-71,66Z" fill="#7c5481" stroke="#7c5481" stroke-width="1.51"/><path d="M1322,-36L1330,-154L1161,-9Z" fill="#72557e" stroke="#72557e" stroke-width="1.51"/><path d="M1520,-5L1322,-36L1370,97Z" fill="#8b5184" stroke="#8b5184" stroke-width="1.51"/><path d="M1564,153L1370,97L1540,240Z" fill="#a74b8b" stroke="#a74b8b" stroke-width="1.51"/><path d="M-169,-192L-180,12L-14,-68Z" fill="#6a557d" stroke="#6a557d" stroke-width="1.51"/><path d="M1639,216L1564,153L1540,240Z" fill="#b4478f" stroke="#b4478f" stroke-width="1.51"/><path d="M1601,632L1670,565L1551,611Z" fill="#835383" stroke="#835383" stroke-width="1.51"/><path d="M1494,896L1612,917L1498,853Z" fill="#8b5285" stroke="#8b5285" stroke-width="1.51"/><path d="M1559,1043L1612,917L1494,896Z" fill="#965087" stroke="#965087" stroke-width="1.51"/><path d="M1697,764L1670,565L1601,632Z" fill="#815382" stroke="#815382" stroke-width="1.51"/><path d="M1389,1119L1559,1043L1415,918Z" fill="#965087" stroke="#965087" stroke-width="1.51"/><path d="M57,-151L-40,-186L-14,-68Z" fill="#70557e" stroke="#70557e" stroke-width="1.51"/><path d="M219,-253L-40,-186L57,-151Z" fill="#6e557e" stroke="#6e557e" stroke-width="1.51"/><path d="M1564,153L1520,-5L1370,97Z" fill="#9b4f88" stroke="#9b4f88" stroke-width="1.51"/><path d="M1564,153L1678,42L1520,-5Z" fill="#a34d8a" stroke="#a34d8a" stroke-width="1.51"/><path d="M1622,366L1639,216L1540,240Z" fill="#af498e" stroke="#af498e" stroke-width="1.51"/><path d="M1670,565L1639,216L1622,366Z" fill="#a44c8b" stroke="#a44c8b" stroke-width="1.51"/><path d="M1612,917L1697,764L1498,853Z" fill="#8c5185" stroke="#8c5185" stroke-width="1.51"/><path d="M1670,565L1678,42L1639,216Z" fill="#b5478f" stroke="#b5478f" stroke-width="1.51"/><path d="M1615,1149L1697,764L1612,917Z" fill="#9d4e89" stroke="#9d4e89" stroke-width="1.51"/><path d="M1559,1043L1615,1149L1612,917Z" fill="#a54c8b" stroke="#a54c8b" stroke-width="1.51"/><path d="M1389,1119L1615,1149L1559,1043Z" fill="#a74b8b" stroke="#a74b8b" stroke-width="1.51"/><path d="M991,1161L1615,1149L1389,1119Z" fill="#9a4f88" stroke="#9a4f88" stroke-width="1.51"/><path d="M219,-253L-169,-192L-40,-186Z" fill="#65557c" stroke="#65557c" stroke-width="1.51"/><path d="M-40,-186L-169,-192L-14,-68Z" fill="#66567c" stroke="#66567c" stroke-width="1.51"/><path d="M-180,12L-169,-192L-233,116Z" fill="#6b557d" stroke="#6b557d" stroke-width="1.51"/><path d="M1520,-5L1594,-107L1330,-154Z" fill="#835283" stroke="#835283" stroke-width="1.51"/><path d="M1330,-154L1580,-246L1137,-264Z" fill="#63567b" stroke="#63567b" stroke-width="1.51"/><path d="M1639,216L1678,42L1564,153Z" fill="#b0498e" stroke="#b0498e" stroke-width="1.51"/><path d="M1697,764L1678,42L1670,565Z" fill="#9e4e89" stroke="#9e4e89" stroke-width="1.51"/><path d="M1678,42L1594,-107L1520,-5Z" fill="#984f88" stroke="#984f88" stroke-width="1.51"/><path d="M1696,-139L1580,-246L1594,-107Z" fill="#875284" stroke="#875284" stroke-width="1.51"/><path d="M1594,-107L1580,-246L1330,-154Z" fill="#7a5481" stroke="#7a5481" stroke-width="1.51"/><path d="M1678,42L1696,-139L1594,-107Z" fill="#984f87" stroke="#984f87" stroke-width="1.51"/><path d="M1697,764L1696,-139L1678,42Z" fill="#be4391" stroke="#be4391" stroke-width="1.51"/></svg>